<?xml version="1.0" encoding="utf-8"?>
<!-- Generator: Adobe Illustrator 19.1.0, SVG Export Plug-In . SVG Version: 6.00 Build 0)  -->
<svg version="1.1" id="Layer_1" xmlns="http://www.w3.org/2000/svg" xmlns:xlink="http://www.w3.org/1999/xlink" x="0px" y="0px"
	 viewBox="0 0 172.8 78" style="enable-background:new 0 0 172.8 78;" xml:space="preserve">
<style type="text/css">
	.st0{opacity:0.5;fill:#FFFFFF;}
	.st1{fill-rule:evenodd;clip-rule:evenodd;fill:#0D85C8;}
	.st2{fill-rule:evenodd;clip-rule:evenodd;fill:#EE3044;}
	.st3{fill-rule:evenodd;clip-rule:evenodd;fill:#72C058;}
	.st4{fill-rule:evenodd;clip-rule:evenodd;fill:#FAA431;}
	.st5{fill:#FFFFFF;}
</style>
<path id="XMLID_36_" class="st0" d="M40.2,64.5C37.2,72.4,29.6,78,20.7,78C9.3,78,0,68.7,0,57.3c0-4.6,1.5-8.8,4-12.2
	c-2.5-3.4-4-7.6-4-12.2C0,24,5.6,16.4,13.5,13.5C16.4,5.6,24,0,32.9,0c11.4,0,20.7,9.3,20.7,20.7c0,4.6-1.5,8.8-4,12.2
	c2.5,3.4,4,7.6,4,12.2C53.6,54,48,61.6,40.2,64.5z M37.5,60.3c6.5-2,11.2-8,11.2-15.2c0-5.3-2.2-8.5-5.5-12.2
	c3.3-3.7,5.5-6.9,5.5-12.2c0-8.8-7.1-15.8-15.8-15.8c-8,0-13.4,5.3-15.6,12.5c-7.2,2.2-12.5,7.5-12.5,15.5c0,5.3,2.2,8.5,5.5,12.2
	C7,48.8,4.9,52,4.9,57.3c0,8.8,7.1,15.8,15.8,15.8c8,0,13.4-5.3,15.5-12.5L37.5,60.3z"/>
<path id="XMLID_35_" class="st1" d="M8.5,57.3c0-6.7,5.5-12.2,12.2-12.2c0,6.7,5.5,12.2,12.2,12.2c0,6.7-5.5,12.2-12.2,12.2
	C14,69.5,8.5,64,8.5,57.3z"/>
<path id="XMLID_34_" class="st2" d="M8.5,32.9c0-6.7,5.5-12.2,12.2-12.2c0,6.7,5.5,12.2,12.2,12.2c-6.7,0-12.2,5.5-12.2,12.2
	C14,45.1,8.5,39.6,8.5,32.9z"/>
<path id="XMLID_33_" class="st3" d="M32.9,32.9c6.7,0,12.2,5.5,12.2,12.2c0,6.7-5.5,12.2-12.2,12.2c0-6.7-5.5-12.2-12.2-12.2
	C27.5,45.1,32.9,39.6,32.9,32.9z"/>
<path id="XMLID_32_" class="st4" d="M20.7,20.7c0-6.7,5.5-12.2,12.2-12.2c6.7,0,12.2,5.5,12.2,12.2c0,6.7-5.5,12.2-12.2,12.2
	C32.9,26.2,27.5,20.7,20.7,20.7z"/>
<path id="XMLID_30_" class="st5" d="M61.5,27.8h5c0.2,1.4,0.7,2.4,1.6,3c1,0.7,2.3,1,3.9,1c1.5,0,2.6-0.3,3.3-0.8
	c0.8-0.5,1.1-1.3,1.1-2.3c0-1.5-2.1-2.8-6.4-3.7L70,24.9l-0.6-0.1c-2.4-0.5-4-1.1-4.8-1.6c-0.9-0.5-1.6-1.3-2-2.3
	c-0.5-0.9-0.7-1.9-0.7-3.3c0-2.3,0.8-4.2,2.4-5.5c1.6-1.3,4-1.9,7.1-1.9c2.9,0,5.1,0.7,6.7,2c1.6,1.5,2.5,3.4,2.6,5.8h-2.9
	c-1.1,0-1.9-0.5-2.3-1.5c-0.2-0.5-0.6-0.9-1-1.2c-0.9-0.6-2-0.9-3.5-0.9c-1.4,0-2.4,0.3-3.1,0.8c-0.7,0.5-1.1,1.3-1.1,2.2
	c0,1.3,1.4,2.2,4.1,2.9c0.8,0.2,1.4,0.4,1.8,0.4c0.9,0.3,1.6,0.5,2.2,0.7c0.6,0.2,1.2,0.3,1.5,0.4c0.7,0.3,1.3,0.6,2,0.9
	c0.9,0.6,1.7,1.3,2.2,2.2c0.5,1,0.8,2.1,0.8,3.3c0,2.6-0.9,4.6-2.6,6c-1.7,1.3-4.1,2-7.3,2c-3.2,0-5.7-0.7-7.3-2.1
	C62.6,32.5,61.6,30.5,61.5,27.8z"/>
<path id="XMLID_28_" class="st5" d="M99,35.4h-4.9V24.3v-1c0-1.1-0.3-2-1-2.5c-0.7-0.5-1.5-0.8-2.3-0.8s-1.6,0.3-2.3,0.8
	c-0.7,0.5-1,1.4-1,2.5v12.1h-5V24.3c0-3.2,0.8-5.4,2.5-6.5c1.7-1.1,3.6-1.7,5.6-1.8c1.1,0,2.2,0.1,3.2,0.4c1,0.2,2,0.7,2.8,1.4
	c0.7-0.6,1.6-1.1,2.5-1.3c1-0.3,2-0.4,3-0.5c2.1,0,4,0.5,5.8,1.6c1.8,1.1,2.6,3.3,2.6,6.6v11.1h-2.5c-0.7,0-1.3-0.2-1.7-0.7
	c-0.5-0.5-0.7-1-0.7-1.7v-9.7c0-1.1-0.3-2-1-2.5c-0.7-0.5-1.5-0.8-2.3-0.8c-0.9,0-1.6,0.3-2.3,0.8c-0.7,0.5-1,1.4-1,2.5v1V35.4z"/>
<path id="XMLID_26_" class="st5" d="M130.9,35.4v-9.2c0-1.9,0.3-3.4,0.8-4.7c0.5-1.3,1.3-2.3,2.2-3c0.9-0.7,2-1.2,3.2-1.6
	c1.2-0.3,2.5-0.5,3.7-0.5c0.1,0,0.2,0,0.4,0c0.1,0,0.3,0,0.4,0v5.1h-1.6c-1.4,0-2.4,0.3-3.1,1c-0.7,0.7-1,1.7-1,3.1v9.8H130.9z"/>
<path id="XMLID_24_" class="st5" d="M150.4,35.4c-1.6,0.1-3.3,0.1-5.1-0.1c-1.8-0.1-2.7-1.3-2.7-3.5V10.9h2.6c0.6,0,1.2,0.2,1.6,0.7
	c0.5,0.5,0.7,1,0.7,1.7v3.2h2.9v1c0,0.7-0.2,1.3-0.7,1.7c-0.5,0.5-1,0.7-1.7,0.7h-0.5v10.5c0,0.8,0.5,1.2,1.4,1.2h1.5V35.4z"/>
<path id="XMLID_22_" class="st5" d="M62.1,65.4V43.5c0-0.7,0.3-1.3,0.8-1.8c0.5-0.5,1.1-0.7,1.8-0.7h2.5v24.5H62.1z"/>
<path id="XMLID_20_" class="st5" d="M85.1,65.4h-2.5c-0.7,0-1.3-0.2-1.8-0.7c-0.5-0.5-0.7-1-0.7-1.7v-9.7c0-1.1-0.3-2-1-2.5
	c-0.7-0.5-1.5-0.8-2.3-0.8c-0.9,0-1.6,0.3-2.3,0.8c-0.7,0.5-1,1.3-1,2.5v12.1h-5V54.3c0-3.2,0.8-5.4,2.5-6.5
	c1.7-1.1,3.6-1.7,5.6-1.8c2.1,0,4,0.6,5.8,1.6c1.8,1.1,2.6,3.3,2.6,6.6V65.4z"/>
<path id="XMLID_18_" class="st5" d="M86.2,59.2h4.9c0,0.9,0.4,1.7,1.1,2.1c0.7,0.5,1.7,0.7,2.9,0.7c0.9,0,1.6-0.2,2.2-0.5
	c0.6-0.3,0.9-0.8,0.9-1.4c0-0.9-1-1.5-3-1.9c-0.9-0.1-1.5-0.3-1.9-0.4c-2.5-0.6-4.2-1.4-5.1-2.2c-0.9-0.9-1.4-2-1.4-3.4
	c0-1.8,0.7-3.3,2.1-4.5c1.4-1.1,3.3-1.6,5.6-1.6c2.5,0,4.5,0.6,5.9,1.6c1.4,1.2,2.1,2.7,2.2,4.6h-3.1c-0.9,0-1.6-0.4-2.1-1.2
	c-0.2-0.2-0.4-0.4-0.6-0.6c-0.6-0.4-1.4-0.6-2.4-0.6c-1,0-1.7,0.1-2.1,0.4c-0.4,0.3-0.6,0.7-0.6,1.3c0,0.8,1.2,1.4,3.7,1.9
	c0.3,0.1,0.5,0.2,0.8,0.2c0.2,0,0.4,0.1,0.6,0.1c2.4,0.6,4.1,1.3,5.1,2.1c0.9,0.9,1.4,2,1.4,3.4c0,2.1-0.8,3.7-2.3,4.8
	c-1.4,1-3.6,1.6-6.4,1.6c-2.7,0-4.7-0.5-6.1-1.6c-1.4-1.1-2.1-2.7-2.1-4.8V59.2z"/>
<path id="XMLID_15_" class="st5" d="M104,40.9h2.6c0.7,0,1.2,0.2,1.7,0.7c0.5,0.5,0.7,1,0.7,1.7v1.5h-5V40.9z M104,46.5h2.6
	c0.7,0,1.2,0.2,1.7,0.7c0.5,0.5,0.7,1,0.7,1.7v16.5h-5V46.5z"/>
<path id="XMLID_12_" class="st5" d="M122.9,64.3v-1.2c-0.9,1.3-2,2.2-3.5,2.5c-1.5,0.3-2.9,0.2-4.3-0.4c-1.4-0.6-2.7-1.6-3.7-3.2
	c-1-1.5-1.5-3.6-1.5-6.1c0-2.9,0.7-5.3,2-7.2c1.4-1.8,3.5-2.7,6.5-2.7c2.3,0,4.4,0.6,6.4,1.9c2,1.2,2.9,3.5,2.9,6.8v10
	c0,3.3-1,5.6-2.9,6.8c-2,1.2-4.1,1.8-6.4,1.8c-4.4,0-7.1-2-8.1-6.1h5.2c0.4,0.7,1,1.2,1.7,1.5c0.8,0.4,1.6,0.5,2.4,0.3
	c0.8-0.2,1.5-0.6,2.1-1.4C122.5,66.9,122.8,65.8,122.9,64.3z M114.8,56.1c0,3.3,1,5.1,2.9,5.4c1.9,0.4,3.3-0.1,4.2-1.3
	c0.4-0.5,0.7-1.3,0.9-2.5c0.2-1.1,0.2-2.2,0-3.3c-0.2-1.1-0.6-2.1-1.2-2.9c-0.6-0.9-1.5-1.3-2.7-1.3c-1.6,0-2.7,0.6-3.3,1.8
	C115.1,53.2,114.8,54.6,114.8,56.1z"/>
<path id="XMLID_10_" class="st5" d="M140.9,51.8c-0.7-1-1.7-1.5-2.9-1.5c-1.3,0-2.4,0.5-3.1,1.4c-0.7,0.9-1.1,2.3-1.1,3.9v9.8h-4.9
	V40.9h2.4c0.7,0,1.2,0.2,1.7,0.7c0.5,0.5,0.7,1,0.7,1.7V49c0.9-1.4,2.1-2.3,3.6-2.7c1.6-0.4,3.1-0.3,4.5,0.3
	c1.3,0.6,2.5,1.5,3.4,2.7c0.9,1.2,1.4,2.9,1.4,5.1v11h-4.8v-9.8c0-0.7-0.1-1.4-0.2-2C141.6,53,141.3,52.4,140.9,51.8z"/>
<path id="XMLID_8_" class="st5" d="M155.7,65.4c-1.6,0.1-3.3,0.1-5.1-0.1c-1.8-0.1-2.8-1.3-2.8-3.5V40.9h2.6c0.6,0,1.2,0.2,1.6,0.7
	c0.5,0.5,0.7,1,0.7,1.7v3.2h2.9v1c0,0.7-0.2,1.3-0.7,1.7c-0.5,0.5-1.1,0.7-1.7,0.7h-0.5v10.5c0,0.8,0.5,1.2,1.4,1.2h1.5V65.4z"/>
<path id="XMLID_6_" class="st5" d="M156,59h4.9c0,1,0.4,1.7,1.1,2.1c0.7,0.5,1.7,0.7,2.9,0.7c0.9,0,1.6-0.2,2.2-0.5
	c0.6-0.3,0.9-0.8,0.9-1.4c0-0.9-1-1.5-3-1.9c-0.9-0.1-1.5-0.3-1.9-0.4c-2.5-0.6-4.2-1.4-5.1-2.2c-1-0.9-1.4-2-1.4-3.4
	c0-1.8,0.7-3.3,2.1-4.5c1.4-1.1,3.3-1.6,5.6-1.6c2.5,0,4.5,0.5,5.9,1.6c1.4,1.2,2.1,2.7,2.2,4.6h-3.1c-0.9,0-1.6-0.4-2.1-1.2
	c-0.2-0.2-0.4-0.4-0.6-0.6c-0.6-0.4-1.4-0.6-2.4-0.6c-1,0-1.7,0.1-2.1,0.4c-0.4,0.3-0.6,0.7-0.6,1.3c0,0.8,1.2,1.4,3.7,1.9
	c0.3,0.1,0.5,0.2,0.8,0.2c0.2,0,0.4,0.1,0.6,0.1c2.4,0.6,4.1,1.3,5.1,2.1c0.9,0.9,1.4,2,1.4,3.4c0,2.1-0.8,3.7-2.3,4.8
	c-1.4,1-3.6,1.6-6.4,1.6c-2.7,0-4.7-0.5-6.1-1.6c-1.4-1.1-2.1-2.7-2.1-4.8V59z"/>
<path id="XMLID_3_" class="st5" d="M112.4,22.5c0.3-4.8,4.6-6.3,8.8-6.3c3.7,0,8.2,0.8,8.2,5.3v9.8c0,1.7,0.2,3.4,0.7,4.2h-5.2
	c-0.2-0.6-0.3-1.2-0.4-1.8c-1.6,1.7-4,2.3-6.3,2.3c-3.6,0-6.4-1.8-6.4-5.6c0-4.2,3.2-5.3,6.4-5.7c3.2-0.5,6.1-0.4,6.1-2.5
	c0-2.2-1.5-2.5-3.3-2.5c-2,0-3.2,0.8-3.4,2.8H112.4z M124.3,26.3c-0.9,0.8-2.7,0.8-4.3,1.1c-1.6,0.3-3,0.9-3,2.8
	c0,1.9,1.5,2.4,3.2,2.4c4,0,4.2-3.2,4.2-4.3V26.3z"/>
</svg>
