<?xml version="1.0" encoding="utf-8"?>
<!-- Generator: Adobe Illustrator 19.2.1, SVG Export Plug-In . SVG Version: 6.00 Build 0)  -->
<svg version="1.1" id="Layer_1" xmlns="http://www.w3.org/2000/svg" xmlns:xlink="http://www.w3.org/1999/xlink" x="0px" y="0px"
	 viewBox="0 0 128 83" style="enable-background:new 0 0 128 83;" xml:space="preserve">
<style type="text/css">
	.st0{fill:#1A2D37;}
	.st1{fill:#2879A5;}
	.st2{fill:#76CAF7;}
</style>
<g id="Toolkit">
	<path class="st0" d="M124,20H4c-2.2,0-4,1.8-4,4v29h128V24C128,21.8,126.2,20,124,20z M4,83h121V57H4V83z M47,7h33v9h7V4
		c0-2.2-1.8-4-4-4H44c-2.2,0-4,1.8-4,4v12h7V7z"/>
	<path class="st1" d="M47,20v-4h-7v4H47z M87,16h-7v4h7V16z M5,53v4h119v-4H5z"/>
	<path class="st2" d="M23,69h11V49H23V69z M95,49v20h11V49H95z"/>
</g>
</svg>
