<?xml version="1.0" encoding="utf-8"?>
<!-- Generator: Adobe Illustrator 19.2.1, SVG Export Plug-In . SVG Version: 6.00 Build 0)  -->
<svg version="1.1" xmlns="http://www.w3.org/2000/svg" xmlns:xlink="http://www.w3.org/1999/xlink" x="0px" y="0px"
	 viewBox="0 0 710 340.2" style="enable-background:new 0 0 710 340.2;" xml:space="preserve">
<style type="text/css">
	.st0{fill:#0D0D0D;}
	.st1{fill-rule:evenodd;clip-rule:evenodd;fill:#0E82C6;}
	.st2{fill-rule:evenodd;clip-rule:evenodd;fill:#E62338;}
	.st3{fill-rule:evenodd;clip-rule:evenodd;fill:#78B948;}
	.st4{fill-rule:evenodd;clip-rule:evenodd;fill:#F7A51F;}
	.st5{display:none;}
	.st6{display:inline;}
	.st7{opacity:0.5;fill:#FFFFFF;}
	.st8{fill:#FFFFFF;}
	.st9{fill-rule:evenodd;clip-rule:evenodd;fill:#FFFFFF;}
	.st10{fill-rule:evenodd;clip-rule:evenodd;}
</style>
<g id="Colour">
	<g id="XMLID_2_">
		<path id="XMLID_36_" class="st0" d="M188.5,261.9c-10.6,28.3-37.9,48.5-69.9,48.5c-41.2,0-74.6-33.4-74.6-74.6
			c0-16.4,5.3-31.6,14.3-43.9c-9-12.3-14.3-27.5-14.3-43.9c0-32,20.2-59.3,48.6-69.9c10.6-28.3,37.9-48.5,69.9-48.5
			c41.2,0,74.6,33.4,74.6,74.6c0,16.4-5.3,31.6-14.3,43.9c9,12.3,14.3,27.5,14.3,43.9C237,224.1,216.8,251.3,188.5,261.9z
			 M179,246.6c23.4-7.1,40.5-28.9,40.5-54.6c0-18.9-7.8-30.5-19.8-43.9c12-13.4,19.8-24.9,19.8-43.9c0-31.5-25.6-57-57-57
			c-28.9,0-48.1,18.9-56,45c-26,7.9-45,27.1-45,55.9c0,18.9,7.8,30.5,19.8,43.9c-12,13.4-19.8,24.9-19.8,43.9c0,31.5,25.5,57,57,57
			c28.9,0,48.1-18.9,56-44.9L179,246.6z"/>
		<path id="XMLID_35_" class="st1" d="M74.7,235.9c0-24.2,19.6-43.9,43.9-43.9c0,24.2,19.6,43.9,43.9,43.9
			c0,24.2-19.7,43.9-43.9,43.9C94.3,279.7,74.7,260.1,74.7,235.9z"/>
		<path id="XMLID_34_" class="st2" d="M74.7,148.2c0-24.2,19.6-43.9,43.9-43.9c0,24.2,19.6,43.9,43.9,43.9
			c-24.2,0-43.9,19.6-43.9,43.9C94.3,192,74.7,172.4,74.7,148.2z"/>
		<path id="XMLID_33_" class="st3" d="M162.4,148.2c24.2,0,43.9,19.6,43.9,43.9c0,24.2-19.6,43.9-43.9,43.9
			c0-24.2-19.6-43.9-43.9-43.9C142.8,192,162.4,172.4,162.4,148.2z"/>
		<path id="XMLID_32_" class="st4" d="M118.6,104.3c0-24.2,19.6-43.9,43.9-43.9c24.2,0,43.9,19.6,43.9,43.9
			c0,24.2-19.6,43.9-43.9,43.9C162.4,123.9,142.8,104.3,118.6,104.3z"/>
		<path id="XMLID_30_" class="st0" d="M265.3,129.6h18c0.7,5.1,2.6,8.7,5.9,10.8c3.4,2.4,8.1,3.6,14.1,3.6c5.3,0,9.3-0.9,12.1-2.8
			c2.7-1.9,4.1-4.6,4.1-8.2c0-5.5-7.7-9.9-23.1-13.3l-0.5-0.3l-2-0.5c-8.7-1.9-14.5-3.9-17.4-5.9c-3.4-1.9-5.8-4.6-7.2-8.2
			c-1.7-3.1-2.6-7-2.6-11.8c0-8.4,2.9-15,8.7-19.8c5.8-4.6,14.3-6.9,25.4-6.9c10.4,0,18.5,2.4,24.1,7.2c5.8,5.3,8.9,12.2,9.2,20.8
			h-10.3c-3.9,0-6.7-1.8-8.5-5.4c-0.9-1.7-2.1-3.2-3.6-4.4c-3.1-2.2-7.3-3.3-12.6-3.3c-5.1,0-8.8,0.9-11,2.8
			c-2.6,1.9-3.8,4.5-3.8,7.9c0,4.6,5,8,14.9,10.3c2.9,0.9,5.1,1.4,6.4,1.5c3.1,1,5.8,1.8,8.1,2.4c2.3,0.6,4.1,1.1,5.5,1.4
			c2.4,1,4.8,2,7.2,3.1c3.4,2.1,6.1,4.7,8,8c1.9,3.6,2.8,7.5,2.8,11.8c0,9.2-3.1,16.4-9.2,21.5c-6.2,4.8-14.9,7.2-26.1,7.2
			c-11.6,0-20.3-2.5-26.2-7.4C269.2,146.7,265.8,139.3,265.3,129.6z"/>
		<path id="XMLID_28_" class="st0" d="M400.2,157h-17.7v-40v-3.6c0-4.1-1.3-7.1-3.7-9c-2.5-1.9-5.3-2.8-8.3-2.8
			c-3.1,0-5.8,0.9-8.2,2.8c-2.4,1.9-3.6,4.9-3.6,9V157h-17.9v-40c0-11.6,3-19.4,9.1-23.3c6.1-3.9,12.8-6.1,20.1-6.4
			c3.9,0,7.8,0.4,11.5,1.3c3.8,0.9,7.2,2.6,10.3,5.1c2.6-2.2,5.6-3.8,9.1-4.7c3.5-0.9,7.1-1.5,10.9-1.7c7.5,0,14.4,2,20.8,5.9
			c6.3,3.9,9.5,11.9,9.5,23.8v40h-9c-2.6,0-4.7-0.8-6.3-2.4c-1.6-1.6-2.4-3.7-2.4-6.3v-34.9c0-4.1-1.2-7.1-3.7-9
			c-2.5-1.9-5.3-2.8-8.3-2.8c-3.1,0-5.8,0.9-8.3,2.8c-2.5,1.9-3.7,4.9-3.7,9v3.6V157z"/>
		<path id="XMLID_26_" class="st0" d="M514.9,157v-33.1c0-6.7,1-12.3,3-16.8c2-4.5,4.7-8.1,8.1-10.9c3.2-2.6,7.1-4.4,11.4-5.6
			c4.4-1.2,8.8-1.8,13.5-1.8c0.3,0,0.8,0,1.3,0c0.5,0,0.9,0,1.3,0V107h-5.9c-5,0-8.6,1.2-11,3.6c-2.4,2.4-3.6,6.2-3.6,11.3V157
			H514.9z"/>
		<path id="XMLID_24_" class="st0" d="M585.4,157c-5.6,0.3-11.7,0.3-18.3-0.3c-6.6-0.5-9.9-4.7-9.9-12.5V68.8h9.2
			c2.2,0,4.2,0.9,5.9,2.6c1.7,1.7,2.6,3.8,2.6,6.1v11.5h10.5v3.6c0,2.6-0.9,4.6-2.6,6.3c-1.7,1.6-3.8,2.4-6.2,2.4h-1.8v37.9
			c0,2.9,1.7,4.4,5.1,4.4h5.4V157z"/>
		<path id="XMLID_22_" class="st0" d="M267.4,265.2v-79c0-2.6,0.9-4.7,2.7-6.5c1.8-1.8,4-2.7,6.6-2.7h9v88.2H267.4z"/>
		<path id="XMLID_20_" class="st0" d="M350.3,265.2h-9c-2.6,0-4.7-0.8-6.3-2.4c-1.6-1.6-2.4-3.7-2.4-6.3v-34.9c0-4.1-1.2-7.1-3.7-9
			c-2.5-1.9-5.3-2.8-8.4-2.8c-3.1,0-5.8,0.9-8.2,2.8c-2.4,1.9-3.6,4.9-3.6,9v43.6h-18v-40c0-11.6,3.1-19.4,9.1-23.3
			c6.1-3.9,12.8-6.1,20.2-6.4c7.5,0,14.5,2,20.8,5.9c6.3,3.9,9.5,11.9,9.5,23.8V265.2z"/>
		<path id="XMLID_18_" class="st0" d="M354.3,242.6h17.5c0.2,3.4,1.5,6,3.9,7.7c2.6,1.7,6,2.6,10.3,2.6c3.1,0,5.7-0.6,8-1.8
			c2.1-1.2,3.1-2.8,3.1-4.9c0-3.1-3.6-5.4-10.8-6.9c-3.1-0.5-5.4-1-6.9-1.5c-9.1-2.2-15.2-4.9-18.3-7.9c-3.4-3.1-5.1-7.2-5.1-12.3
			c0-6.5,2.5-11.9,7.5-16.1c5.1-3.9,11.8-5.9,20.1-5.9c8.9,0,16,2,21.3,5.9c5,4.3,7.6,9.8,8,16.7h-11.1c-3.2,0-5.7-1.4-7.5-4.4
			c-0.7-0.7-1.4-1.4-2.1-2.1c-2-1.5-4.9-2.3-8.5-2.3c-3.4,0-6,0.5-7.7,1.5c-1.5,1-2.3,2.6-2.3,4.6c0,2.7,4.4,5,13.4,6.9
			c1,0.3,1.9,0.6,2.7,0.8c0.8,0.2,1.5,0.3,2.2,0.3c8.7,2.2,14.8,4.8,18.3,7.7c3.3,3.1,4.9,7.2,4.9,12.3c0,7.5-2.7,13.3-8.2,17.4
			c-5.1,3.8-12.9,5.6-23.1,5.6c-9.8,0-17.1-2-21.9-5.9c-5-3.9-7.5-9.7-7.5-17.2V242.6z"/>
		<path id="XMLID_15_" class="st0" d="M418.2,177h9.3c2.4,0,4.4,0.9,6.2,2.6c1.7,1.7,2.6,3.8,2.6,6.2v5.4h-18V177z M418.2,197h9.3
			c2.4,0,4.4,0.9,6.2,2.6c1.7,1.7,2.6,3.8,2.6,6.2v59.5h-18V197z"/>
		<path id="XMLID_12_" class="st0" d="M486.4,261.1v-4.3c-3.1,4.8-7.2,7.8-12.5,9c-5.2,1.2-10.4,0.8-15.5-1.3
			c-5.1-2.1-9.6-5.9-13.3-11.4c-3.7-5.5-5.5-12.8-5.5-21.9c0-10.6,2.4-19.2,7.3-25.8c4.9-6.6,12.7-9.9,23.5-9.9
			c8.2,0,15.9,2.2,22.9,6.7c7,4.5,10.5,12.7,10.5,24.6v36.1c0,12-3.5,20.1-10.5,24.5c-7,4.4-14.7,6.5-22.9,6.5
			c-15.8,0-25.5-7.3-29.3-22h18.8c1.4,2.4,3.5,4.2,6.3,5.5c2.8,1.3,5.7,1.6,8.5,1c2.8-0.6,5.4-2.3,7.7-5
			C484.7,270.7,486,266.6,486.4,261.1z M457.1,231.6c0,11.8,3.4,18.3,10.3,19.6c6.9,1.3,11.9-0.3,15.2-4.7c1.6-1.9,2.7-4.8,3.3-8.9
			c0.7-4,0.7-8,0.1-11.9c-0.6-3.9-2-7.4-4.2-10.5c-2.2-3.1-5.5-4.6-9.8-4.6c-5.8,0-9.8,2.1-11.8,6.4
			C458.1,221.3,457.1,226.1,457.1,231.6z"/>
		<path id="XMLID_10_" class="st0" d="M551,216.2c-2.6-3.6-6.1-5.4-10.5-5.4c-4.8,0-8.5,1.7-11.1,5.1c-2.6,3.4-3.9,8.1-3.9,14.1
			v35.1h-17.5V177h8.7c2.4,0,4.5,0.9,6.2,2.6c1.7,1.7,2.6,3.8,2.6,6.2V206c3.1-5.1,7.5-8.4,13.1-9.7c5.7-1.4,11.1-1,16.2,1
			c4.8,2.1,8.8,5.3,12.1,9.7c3.2,4.4,4.9,10.6,4.9,18.5v39.7h-17.2v-35.4c0-2.6-0.2-4.9-0.6-7C553.5,220.6,552.5,218.4,551,216.2z"
			/>
		<path id="XMLID_8_" class="st0" d="M604.3,265.2c-5.6,0.4-11.8,0.3-18.4-0.3c-6.6-0.5-9.9-4.7-9.9-12.6V177h9.3
			c2.2,0,4.2,0.9,5.9,2.6c1.7,1.7,2.6,3.8,2.6,6.2v11.5h10.5v3.6c0,2.6-0.9,4.7-2.6,6.3c-1.7,1.6-3.8,2.4-6.2,2.4h-1.8v38
			c0,2.9,1.7,4.4,5.1,4.4h5.4V265.2z"/>
		<path id="XMLID_6_" class="st0" d="M605.4,242.2h17.5c0.2,3.4,1.5,6,3.9,7.7c2.6,1.7,6,2.6,10.3,2.6c3.1,0,5.7-0.6,8-1.8
			c2.1-1.2,3.1-2.8,3.1-4.9c0-3.1-3.6-5.4-10.8-6.9c-3.1-0.5-5.4-1-6.9-1.5c-9.1-2.2-15.2-4.9-18.2-8c-3.4-3.1-5.2-7.2-5.2-12.3
			c0-6.5,2.5-11.9,7.5-16.2c5.1-3.9,11.8-5.9,20.1-5.9c8.9,0,16,2,21.3,5.9c5,4.3,7.6,9.9,8,16.7h-11.1c-3.3,0-5.7-1.5-7.5-4.4
			c-0.7-0.7-1.4-1.4-2.1-2c-2.1-1.5-4.9-2.3-8.5-2.3c-3.5,0-6,0.5-7.7,1.5c-1.5,1-2.3,2.6-2.3,4.6c0,2.7,4.5,5,13.4,6.9
			c1,0.4,1.9,0.6,2.7,0.8c0.8,0.2,1.5,0.3,2.2,0.3c8.8,2.2,14.8,4.8,18.3,7.7c3.2,3.1,4.9,7.2,4.9,12.3c0,7.5-2.7,13.3-8.2,17.4
			c-5.1,3.8-12.9,5.6-23.1,5.6c-9.8,0-17.1-2-21.9-5.9c-5-3.9-7.5-9.6-7.5-17.2V242.2z"/>
		<path id="XMLID_3_" class="st0" d="M448.3,110.6c1-17.4,16.6-22.6,31.7-22.6c13.4,0,29.6,3,29.6,19.2v35.1c0,6.2,0.7,12.3,2.3,15
			h-18.8c-0.7-2.1-1.2-4.3-1.3-6.5c-5.9,6.1-14.5,8.4-22.7,8.4c-12.8,0-23-6.4-23-20.2c0-15.3,11.5-18.9,23-20.5
			c11.4-1.7,21.9-1.3,21.9-8.9c0-8-5.5-9.1-12-9.1c-7,0-11.6,2.9-12.3,10.2H448.3z M491.2,124.3c-3.1,2.7-9.7,2.9-15.4,3.9
			c-5.7,1.2-11,3.1-11,9.9c0,6.9,5.3,8.6,11.4,8.6c14.5,0,15-11.5,15-15.5V124.3z"/>
	</g>
</g>
<g id="Transparent" class="st5">
	<g id="XMLID_112_" class="st6">
		<path id="XMLID_146_" class="st7" d="M188.5,261.9c-10.6,28.3-37.9,48.5-69.9,48.5c-41.2,0-74.6-33.4-74.6-74.6
			c0-16.4,5.3-31.6,14.3-43.9c-9-12.3-14.3-27.5-14.3-43.9c0-32,20.2-59.3,48.6-69.9c10.6-28.3,37.9-48.5,69.9-48.5
			c41.2,0,74.6,33.4,74.6,74.6c0,16.4-5.3,31.6-14.3,43.9c9,12.3,14.3,27.5,14.3,43.9C237,224.1,216.8,251.3,188.5,261.9z
			 M179,246.6c23.4-7.1,40.5-28.9,40.5-54.6c0-18.9-7.8-30.5-19.8-43.9c12-13.4,19.8-24.9,19.8-43.9c0-31.5-25.6-57-57-57
			c-28.9,0-48.1,18.9-56,45c-26,7.9-45,27.1-45,55.9c0,18.9,7.8,30.5,19.8,43.9c-12,13.4-19.8,24.9-19.8,43.9c0,31.5,25.5,57,57,57
			c28.9,0,48.1-18.9,56-44.9L179,246.6z"/>
		<path id="XMLID_145_" class="st1" d="M74.7,235.9c0-24.2,19.6-43.9,43.9-43.9c0,24.2,19.6,43.9,43.9,43.9
			c0,24.2-19.7,43.9-43.9,43.9C94.3,279.7,74.7,260.1,74.7,235.9z"/>
		<path id="XMLID_144_" class="st2" d="M74.7,148.2c0-24.2,19.6-43.9,43.9-43.9c0,24.2,19.6,43.9,43.9,43.9
			c-24.2,0-43.9,19.6-43.9,43.9C94.3,192,74.7,172.4,74.7,148.2z"/>
		<path id="XMLID_143_" class="st3" d="M162.4,148.2c24.2,0,43.9,19.6,43.9,43.9c0,24.2-19.6,43.9-43.9,43.9
			c0-24.2-19.6-43.9-43.9-43.9C142.8,192,162.4,172.4,162.4,148.2z"/>
		<path id="XMLID_142_" class="st4" d="M118.6,104.3c0-24.2,19.6-43.9,43.9-43.9c24.2,0,43.9,19.6,43.9,43.9
			c0,24.2-19.6,43.9-43.9,43.9C162.4,123.9,142.8,104.3,118.6,104.3z"/>
		<path id="XMLID_140_" class="st8" d="M265.3,129.6h18c0.7,5.1,2.6,8.7,5.9,10.8c3.4,2.4,8.1,3.6,14.1,3.6c5.3,0,9.3-0.9,12.1-2.8
			c2.7-1.9,4.1-4.6,4.1-8.2c0-5.5-7.7-9.9-23.1-13.3l-0.5-0.3l-2-0.5c-8.7-1.9-14.5-3.9-17.4-5.9c-3.4-1.9-5.8-4.6-7.2-8.2
			c-1.7-3.1-2.6-7-2.6-11.8c0-8.4,2.9-15,8.7-19.8c5.8-4.6,14.3-6.9,25.4-6.9c10.4,0,18.5,2.4,24.1,7.2c5.8,5.3,8.9,12.2,9.2,20.8
			h-10.3c-3.9,0-6.7-1.8-8.5-5.4c-0.9-1.7-2.1-3.2-3.6-4.4c-3.1-2.2-7.3-3.3-12.6-3.3c-5.1,0-8.8,0.9-11,2.8
			c-2.6,1.9-3.8,4.5-3.8,7.9c0,4.6,5,8,14.9,10.3c2.9,0.9,5.1,1.4,6.4,1.5c3.1,1,5.8,1.8,8.1,2.4c2.3,0.6,4.1,1.1,5.5,1.4
			c2.4,1,4.8,2,7.2,3.1c3.4,2.1,6.1,4.7,8,8c1.9,3.6,2.8,7.5,2.8,11.8c0,9.2-3.1,16.4-9.2,21.5c-6.2,4.8-14.9,7.2-26.1,7.2
			c-11.6,0-20.3-2.5-26.2-7.4C269.2,146.7,265.8,139.3,265.3,129.6z"/>
		<path id="XMLID_138_" class="st8" d="M400.2,157h-17.7v-40v-3.6c0-4.1-1.3-7.1-3.7-9c-2.5-1.9-5.3-2.8-8.3-2.8
			c-3.1,0-5.8,0.9-8.2,2.8c-2.4,1.9-3.6,4.9-3.6,9V157h-17.9v-40c0-11.6,3-19.4,9.1-23.3c6.1-3.9,12.8-6.1,20.1-6.4
			c3.9,0,7.8,0.4,11.5,1.3c3.8,0.9,7.2,2.6,10.3,5.1c2.6-2.2,5.6-3.8,9.1-4.7c3.5-0.9,7.1-1.5,10.9-1.7c7.5,0,14.4,2,20.8,5.9
			c6.3,3.9,9.5,11.9,9.5,23.8v40h-9c-2.6,0-4.7-0.8-6.3-2.4c-1.6-1.6-2.4-3.7-2.4-6.3v-34.9c0-4.1-1.2-7.1-3.7-9
			c-2.5-1.9-5.3-2.8-8.3-2.8c-3.1,0-5.8,0.9-8.3,2.8c-2.5,1.9-3.7,4.9-3.7,9v3.6V157z"/>
		<path id="XMLID_136_" class="st8" d="M514.9,157v-33.1c0-6.7,1-12.3,3-16.8c2-4.5,4.7-8.1,8.1-10.9c3.2-2.6,7.1-4.4,11.4-5.6
			c4.4-1.2,8.8-1.8,13.5-1.8c0.3,0,0.8,0,1.3,0c0.5,0,0.9,0,1.3,0V107h-5.9c-5,0-8.6,1.2-11,3.6c-2.4,2.4-3.6,6.2-3.6,11.3V157
			H514.9z"/>
		<path id="XMLID_134_" class="st8" d="M585.4,157c-5.6,0.3-11.7,0.3-18.3-0.3c-6.6-0.5-9.9-4.7-9.9-12.5V68.8h9.2
			c2.2,0,4.2,0.9,5.9,2.6c1.7,1.7,2.6,3.8,2.6,6.1v11.5h10.5v3.6c0,2.6-0.9,4.6-2.6,6.3c-1.7,1.6-3.8,2.4-6.2,2.4h-1.8v37.9
			c0,2.9,1.7,4.4,5.1,4.4h5.4V157z"/>
		<path id="XMLID_132_" class="st8" d="M267.4,265.2v-79c0-2.6,0.9-4.7,2.7-6.5c1.8-1.8,4-2.7,6.6-2.7h9v88.2H267.4z"/>
		<path id="XMLID_130_" class="st8" d="M350.3,265.2h-9c-2.6,0-4.7-0.8-6.3-2.4c-1.6-1.6-2.4-3.7-2.4-6.3v-34.9c0-4.1-1.2-7.1-3.7-9
			c-2.5-1.9-5.3-2.8-8.4-2.8c-3.1,0-5.8,0.9-8.2,2.8c-2.4,1.9-3.6,4.9-3.6,9v43.6h-18v-40c0-11.6,3.1-19.4,9.1-23.3
			c6.1-3.9,12.8-6.1,20.2-6.4c7.5,0,14.5,2,20.8,5.9c6.3,3.9,9.5,11.9,9.5,23.8V265.2z"/>
		<path id="XMLID_128_" class="st8" d="M354.3,242.6h17.5c0.2,3.4,1.5,6,3.9,7.7c2.6,1.7,6,2.6,10.3,2.6c3.1,0,5.7-0.6,8-1.8
			c2.1-1.2,3.1-2.8,3.1-4.9c0-3.1-3.6-5.4-10.8-6.9c-3.1-0.5-5.4-1-6.9-1.5c-9.1-2.2-15.2-4.9-18.3-7.9c-3.4-3.1-5.1-7.2-5.1-12.3
			c0-6.5,2.5-11.9,7.5-16.1c5.1-3.9,11.8-5.9,20.1-5.9c8.9,0,16,2,21.3,5.9c5,4.3,7.6,9.8,8,16.7h-11.1c-3.2,0-5.7-1.4-7.5-4.4
			c-0.7-0.7-1.4-1.4-2.1-2.1c-2-1.5-4.9-2.3-8.5-2.3c-3.4,0-6,0.5-7.7,1.5c-1.5,1-2.3,2.6-2.3,4.6c0,2.7,4.4,5,13.4,6.9
			c1,0.3,1.9,0.6,2.7,0.8c0.8,0.2,1.5,0.3,2.2,0.3c8.7,2.2,14.8,4.8,18.3,7.7c3.3,3.1,4.9,7.2,4.9,12.3c0,7.5-2.7,13.3-8.2,17.4
			c-5.1,3.8-12.9,5.6-23.1,5.6c-9.8,0-17.1-2-21.9-5.9c-5-3.9-7.5-9.7-7.5-17.2V242.6z"/>
		<path id="XMLID_125_" class="st8" d="M418.2,177h9.3c2.4,0,4.4,0.9,6.2,2.6c1.7,1.7,2.6,3.8,2.6,6.2v5.4h-18V177z M418.2,197h9.3
			c2.4,0,4.4,0.9,6.2,2.6c1.7,1.7,2.6,3.8,2.6,6.2v59.5h-18V197z"/>
		<path id="XMLID_122_" class="st8" d="M486.4,261.1v-4.3c-3.1,4.8-7.2,7.8-12.5,9c-5.2,1.2-10.4,0.8-15.5-1.3
			c-5.1-2.1-9.6-5.9-13.3-11.4c-3.7-5.5-5.5-12.8-5.5-21.9c0-10.6,2.4-19.2,7.3-25.8c4.9-6.6,12.7-9.9,23.5-9.9
			c8.2,0,15.9,2.2,22.9,6.7c7,4.5,10.5,12.7,10.5,24.6v36.1c0,12-3.5,20.1-10.5,24.5c-7,4.4-14.7,6.5-22.9,6.5
			c-15.8,0-25.5-7.3-29.3-22h18.8c1.4,2.4,3.5,4.2,6.3,5.5c2.8,1.3,5.7,1.6,8.5,1c2.8-0.6,5.4-2.3,7.7-5
			C484.7,270.7,486,266.6,486.4,261.1z M457.1,231.6c0,11.8,3.4,18.3,10.3,19.6c6.9,1.3,11.9-0.3,15.2-4.7c1.6-1.9,2.7-4.8,3.3-8.9
			c0.7-4,0.7-8,0.1-11.9c-0.6-3.9-2-7.4-4.2-10.5c-2.2-3.1-5.5-4.6-9.8-4.6c-5.8,0-9.8,2.1-11.8,6.4
			C458.1,221.3,457.1,226.1,457.1,231.6z"/>
		<path id="XMLID_120_" class="st8" d="M551,216.2c-2.6-3.6-6.1-5.4-10.5-5.4c-4.8,0-8.5,1.7-11.1,5.1c-2.6,3.4-3.9,8.1-3.9,14.1
			v35.1h-17.5V177h8.7c2.4,0,4.5,0.9,6.2,2.6c1.7,1.7,2.6,3.8,2.6,6.2V206c3.1-5.1,7.5-8.4,13.1-9.7c5.7-1.4,11.1-1,16.2,1
			c4.8,2.1,8.8,5.3,12.1,9.7c3.2,4.4,4.9,10.6,4.9,18.5v39.7h-17.2v-35.4c0-2.6-0.2-4.9-0.6-7C553.5,220.6,552.5,218.4,551,216.2z"
			/>
		<path id="XMLID_118_" class="st8" d="M604.3,265.2c-5.6,0.4-11.8,0.3-18.4-0.3c-6.6-0.5-9.9-4.7-9.9-12.6V177h9.3
			c2.2,0,4.2,0.9,5.9,2.6c1.7,1.7,2.6,3.8,2.6,6.2v11.5h10.5v3.6c0,2.6-0.9,4.7-2.6,6.3c-1.7,1.6-3.8,2.4-6.2,2.4h-1.8v38
			c0,2.9,1.7,4.4,5.1,4.4h5.4V265.2z"/>
		<path id="XMLID_116_" class="st8" d="M605.4,242.2h17.5c0.2,3.4,1.5,6,3.9,7.7c2.6,1.7,6,2.6,10.3,2.6c3.1,0,5.7-0.6,8-1.8
			c2.1-1.2,3.1-2.8,3.1-4.9c0-3.1-3.6-5.4-10.8-6.9c-3.1-0.5-5.4-1-6.9-1.5c-9.1-2.2-15.2-4.9-18.2-8c-3.4-3.1-5.2-7.2-5.2-12.3
			c0-6.5,2.5-11.9,7.5-16.2c5.1-3.9,11.8-5.9,20.1-5.9c8.9,0,16,2,21.3,5.9c5,4.3,7.6,9.9,8,16.7h-11.1c-3.3,0-5.7-1.5-7.5-4.4
			c-0.7-0.7-1.4-1.4-2.1-2c-2.1-1.5-4.9-2.3-8.5-2.3c-3.5,0-6,0.5-7.7,1.5c-1.5,1-2.3,2.6-2.3,4.6c0,2.7,4.5,5,13.4,6.9
			c1,0.4,1.9,0.6,2.7,0.8c0.8,0.2,1.5,0.3,2.2,0.3c8.8,2.2,14.8,4.8,18.3,7.7c3.2,3.1,4.9,7.2,4.9,12.3c0,7.5-2.7,13.3-8.2,17.4
			c-5.1,3.8-12.9,5.6-23.1,5.6c-9.8,0-17.1-2-21.9-5.9c-5-3.9-7.5-9.6-7.5-17.2V242.2z"/>
		<path id="XMLID_113_" class="st8" d="M448.3,110.6c1-17.4,16.6-22.6,31.7-22.6c13.4,0,29.6,3,29.6,19.2v35.1
			c0,6.2,0.7,12.3,2.3,15h-18.8c-0.7-2.1-1.2-4.3-1.3-6.5c-5.9,6.1-14.5,8.4-22.7,8.4c-12.8,0-23-6.4-23-20.2
			c0-15.3,11.5-18.9,23-20.5c11.4-1.7,21.9-1.3,21.9-8.9c0-8-5.5-9.1-12-9.1c-7,0-11.6,2.9-12.3,10.2H448.3z M491.2,124.3
			c-3.1,2.7-9.7,2.9-15.4,3.9c-5.7,1.2-11,3.1-11,9.9c0,6.9,5.3,8.6,11.4,8.6c14.5,0,15-11.5,15-15.5V124.3z"/>
	</g>
</g>
<g id="White" class="st5">
	<g id="XMLID_1_" class="st6">
		<path id="XMLID_72_" class="st8" d="M188.5,261.9c-10.6,28.3-37.9,48.5-69.9,48.5c-41.2,0-74.6-33.4-74.6-74.6
			c0-16.4,5.3-31.6,14.3-43.9c-9-12.3-14.3-27.5-14.3-43.9c0-32,20.2-59.3,48.6-69.9c10.6-28.3,37.9-48.5,69.9-48.5
			c41.2,0,74.6,33.4,74.6,74.6c0,16.4-5.3,31.6-14.3,43.9c9,12.3,14.3,27.5,14.3,43.9C237,224.1,216.8,251.3,188.5,261.9z
			 M179,246.6c23.4-7.1,40.5-28.9,40.5-54.6c0-18.9-7.8-30.5-19.8-43.9c12-13.4,19.8-24.9,19.8-43.9c0-31.5-25.6-57-57-57
			c-28.9,0-48.1,18.9-56,45c-26,7.9-45,27.1-45,55.9c0,18.9,7.8,30.5,19.8,43.9c-12,13.4-19.8,24.9-19.8,43.9c0,31.5,25.5,57,57,57
			c28.9,0,48.1-18.9,56-44.9L179,246.6z"/>
		<path id="XMLID_71_" class="st9" d="M74.7,235.9c0-24.2,19.6-43.9,43.9-43.9c0,24.2,19.6,43.9,43.9,43.9
			c0,24.2-19.7,43.9-43.9,43.9C94.3,279.7,74.7,260.1,74.7,235.9z"/>
		<path id="XMLID_70_" class="st9" d="M74.7,148.2c0-24.2,19.6-43.9,43.9-43.9c0,24.2,19.6,43.9,43.9,43.9
			c-24.2,0-43.9,19.6-43.9,43.9C94.3,192,74.7,172.4,74.7,148.2z"/>
		<path id="XMLID_69_" class="st9" d="M162.4,148.2c24.2,0,43.9,19.6,43.9,43.9c0,24.2-19.6,43.9-43.9,43.9
			c0-24.2-19.6-43.9-43.9-43.9C142.8,192,162.4,172.4,162.4,148.2z"/>
		<path id="XMLID_68_" class="st9" d="M118.6,104.3c0-24.2,19.6-43.9,43.9-43.9c24.2,0,43.9,19.6,43.9,43.9
			c0,24.2-19.6,43.9-43.9,43.9C162.4,123.9,142.8,104.3,118.6,104.3z"/>
		<path id="XMLID_66_" class="st8" d="M265.3,129.6h18c0.7,5.1,2.6,8.7,5.9,10.8c3.4,2.4,8.1,3.6,14.1,3.6c5.3,0,9.3-0.9,12.1-2.8
			c2.7-1.9,4.1-4.6,4.1-8.2c0-5.5-7.7-9.9-23.1-13.3l-0.5-0.3l-2-0.5c-8.7-1.9-14.5-3.9-17.4-5.9c-3.4-1.9-5.8-4.6-7.2-8.2
			c-1.7-3.1-2.6-7-2.6-11.8c0-8.4,2.9-15,8.7-19.8c5.8-4.6,14.3-6.9,25.4-6.9c10.4,0,18.5,2.4,24.1,7.2c5.8,5.3,8.9,12.2,9.2,20.8
			h-10.3c-3.9,0-6.7-1.8-8.5-5.4c-0.9-1.7-2.1-3.2-3.6-4.4c-3.1-2.2-7.3-3.3-12.6-3.3c-5.1,0-8.8,0.9-11,2.8
			c-2.6,1.9-3.8,4.5-3.8,7.9c0,4.6,5,8,14.9,10.3c2.9,0.9,5.1,1.4,6.4,1.5c3.1,1,5.8,1.8,8.1,2.4c2.3,0.6,4.1,1.1,5.5,1.4
			c2.4,1,4.8,2,7.2,3.1c3.4,2.1,6.1,4.7,8,8c1.9,3.6,2.8,7.5,2.8,11.8c0,9.2-3.1,16.4-9.2,21.5c-6.2,4.8-14.9,7.2-26.1,7.2
			c-11.6,0-20.3-2.5-26.2-7.4C269.2,146.7,265.8,139.3,265.3,129.6z"/>
		<path id="XMLID_64_" class="st8" d="M400.2,157h-17.7v-40v-3.6c0-4.1-1.3-7.1-3.7-9c-2.5-1.9-5.3-2.8-8.3-2.8
			c-3.1,0-5.8,0.9-8.2,2.8c-2.4,1.9-3.6,4.9-3.6,9V157h-17.9v-40c0-11.6,3-19.4,9.1-23.3c6.1-3.9,12.8-6.1,20.1-6.4
			c3.9,0,7.8,0.4,11.5,1.3c3.8,0.9,7.2,2.6,10.3,5.1c2.6-2.2,5.6-3.8,9.1-4.7c3.5-0.9,7.1-1.5,10.9-1.7c7.5,0,14.4,2,20.8,5.9
			c6.3,3.9,9.5,11.9,9.5,23.8v40h-9c-2.6,0-4.7-0.8-6.3-2.4c-1.6-1.6-2.4-3.7-2.4-6.3v-34.9c0-4.1-1.2-7.1-3.7-9
			c-2.5-1.9-5.3-2.8-8.3-2.8c-3.1,0-5.8,0.9-8.3,2.8c-2.5,1.9-3.7,4.9-3.7,9v3.6V157z"/>
		<path id="XMLID_62_" class="st8" d="M514.9,157v-33.1c0-6.7,1-12.3,3-16.8c2-4.5,4.7-8.1,8.1-10.9c3.2-2.6,7.1-4.4,11.4-5.6
			c4.4-1.2,8.8-1.8,13.5-1.8c0.3,0,0.8,0,1.3,0c0.5,0,0.9,0,1.3,0V107h-5.9c-5,0-8.6,1.2-11,3.6c-2.4,2.4-3.6,6.2-3.6,11.3V157
			H514.9z"/>
		<path id="XMLID_60_" class="st8" d="M585.4,157c-5.6,0.3-11.7,0.3-18.3-0.3c-6.6-0.5-9.9-4.7-9.9-12.5V68.8h9.2
			c2.2,0,4.2,0.9,5.9,2.6c1.7,1.7,2.6,3.8,2.6,6.1v11.5h10.5v3.6c0,2.6-0.9,4.6-2.6,6.3c-1.7,1.6-3.8,2.4-6.2,2.4h-1.8v37.9
			c0,2.9,1.7,4.4,5.1,4.4h5.4V157z"/>
		<path id="XMLID_58_" class="st8" d="M267.4,265.2v-79c0-2.6,0.9-4.7,2.7-6.5c1.8-1.8,4-2.7,6.6-2.7h9v88.2H267.4z"/>
		<path id="XMLID_56_" class="st8" d="M350.3,265.2h-9c-2.6,0-4.7-0.8-6.3-2.4c-1.6-1.6-2.4-3.7-2.4-6.3v-34.9c0-4.1-1.2-7.1-3.7-9
			c-2.5-1.9-5.3-2.8-8.4-2.8c-3.1,0-5.8,0.9-8.2,2.8c-2.4,1.9-3.6,4.9-3.6,9v43.6h-18v-40c0-11.6,3.1-19.4,9.1-23.3
			c6.1-3.9,12.8-6.1,20.2-6.4c7.5,0,14.5,2,20.8,5.9c6.3,3.9,9.5,11.9,9.5,23.8V265.2z"/>
		<path id="XMLID_54_" class="st8" d="M354.3,242.6h17.5c0.2,3.4,1.5,6,3.9,7.7c2.6,1.7,6,2.6,10.3,2.6c3.1,0,5.7-0.6,8-1.8
			c2.1-1.2,3.1-2.8,3.1-4.9c0-3.1-3.6-5.4-10.8-6.9c-3.1-0.5-5.4-1-6.9-1.5c-9.1-2.2-15.2-4.9-18.3-7.9c-3.4-3.1-5.1-7.2-5.1-12.3
			c0-6.5,2.5-11.9,7.5-16.1c5.1-3.9,11.8-5.9,20.1-5.9c8.9,0,16,2,21.3,5.9c5,4.3,7.6,9.8,8,16.7h-11.1c-3.2,0-5.7-1.4-7.5-4.4
			c-0.7-0.7-1.4-1.4-2.1-2.1c-2-1.5-4.9-2.3-8.5-2.3c-3.4,0-6,0.5-7.7,1.5c-1.5,1-2.3,2.6-2.3,4.6c0,2.7,4.4,5,13.4,6.9
			c1,0.3,1.9,0.6,2.7,0.8c0.8,0.2,1.5,0.3,2.2,0.3c8.7,2.2,14.8,4.8,18.3,7.7c3.3,3.1,4.9,7.2,4.9,12.3c0,7.5-2.7,13.3-8.2,17.4
			c-5.1,3.8-12.9,5.6-23.1,5.6c-9.8,0-17.1-2-21.9-5.9c-5-3.9-7.5-9.7-7.5-17.2V242.6z"/>
		<path id="XMLID_51_" class="st8" d="M418.2,177h9.3c2.4,0,4.4,0.9,6.2,2.6c1.7,1.7,2.6,3.8,2.6,6.2v5.4h-18V177z M418.2,197h9.3
			c2.4,0,4.4,0.9,6.2,2.6c1.7,1.7,2.6,3.8,2.6,6.2v59.5h-18V197z"/>
		<path id="XMLID_48_" class="st8" d="M486.4,261.1v-4.3c-3.1,4.8-7.2,7.8-12.5,9c-5.2,1.2-10.4,0.8-15.5-1.3
			c-5.1-2.1-9.6-5.9-13.3-11.4c-3.7-5.5-5.5-12.8-5.5-21.9c0-10.6,2.4-19.2,7.3-25.8c4.9-6.6,12.7-9.9,23.5-9.9
			c8.2,0,15.9,2.2,22.9,6.7c7,4.5,10.5,12.7,10.5,24.6v36.1c0,12-3.5,20.1-10.5,24.5c-7,4.4-14.7,6.5-22.9,6.5
			c-15.8,0-25.5-7.3-29.3-22h18.8c1.4,2.4,3.5,4.2,6.3,5.5c2.8,1.3,5.7,1.6,8.5,1c2.8-0.6,5.4-2.3,7.7-5
			C484.7,270.7,486,266.6,486.4,261.1z M457.1,231.6c0,11.8,3.4,18.3,10.3,19.6c6.9,1.3,11.9-0.3,15.2-4.7c1.6-1.9,2.7-4.8,3.3-8.9
			c0.7-4,0.7-8,0.1-11.9c-0.6-3.9-2-7.4-4.2-10.5c-2.2-3.1-5.5-4.6-9.8-4.6c-5.8,0-9.8,2.1-11.8,6.4
			C458.1,221.3,457.1,226.1,457.1,231.6z"/>
		<path id="XMLID_46_" class="st8" d="M551,216.2c-2.6-3.6-6.1-5.4-10.5-5.4c-4.8,0-8.5,1.7-11.1,5.1c-2.6,3.4-3.9,8.1-3.9,14.1
			v35.1h-17.5V177h8.7c2.4,0,4.5,0.9,6.2,2.6c1.7,1.7,2.6,3.8,2.6,6.2V206c3.1-5.1,7.5-8.4,13.1-9.7c5.7-1.4,11.1-1,16.2,1
			c4.8,2.1,8.8,5.3,12.1,9.7c3.2,4.4,4.9,10.6,4.9,18.5v39.7h-17.2v-35.4c0-2.6-0.2-4.9-0.6-7C553.5,220.6,552.5,218.4,551,216.2z"
			/>
		<path id="XMLID_44_" class="st8" d="M604.3,265.2c-5.6,0.4-11.8,0.3-18.4-0.3c-6.6-0.5-9.9-4.7-9.9-12.6V177h9.3
			c2.2,0,4.2,0.9,5.9,2.6c1.7,1.7,2.6,3.8,2.6,6.2v11.5h10.5v3.6c0,2.6-0.9,4.7-2.6,6.3c-1.7,1.6-3.8,2.4-6.2,2.4h-1.8v38
			c0,2.9,1.7,4.4,5.1,4.4h5.4V265.2z"/>
		<path id="XMLID_42_" class="st8" d="M605.4,242.2h17.5c0.2,3.4,1.5,6,3.9,7.7c2.6,1.7,6,2.6,10.3,2.6c3.1,0,5.7-0.6,8-1.8
			c2.1-1.2,3.1-2.8,3.1-4.9c0-3.1-3.6-5.4-10.8-6.9c-3.1-0.5-5.4-1-6.9-1.5c-9.1-2.2-15.2-4.9-18.2-8c-3.4-3.1-5.2-7.2-5.2-12.3
			c0-6.5,2.5-11.9,7.5-16.2c5.1-3.9,11.8-5.9,20.1-5.9c8.9,0,16,2,21.3,5.9c5,4.3,7.6,9.9,8,16.7h-11.1c-3.3,0-5.7-1.5-7.5-4.4
			c-0.7-0.7-1.4-1.4-2.1-2c-2.1-1.5-4.9-2.3-8.5-2.3c-3.5,0-6,0.5-7.7,1.5c-1.5,1-2.3,2.6-2.3,4.6c0,2.7,4.5,5,13.4,6.9
			c1,0.4,1.9,0.6,2.7,0.8c0.8,0.2,1.5,0.3,2.2,0.3c8.8,2.2,14.8,4.8,18.3,7.7c3.2,3.1,4.9,7.2,4.9,12.3c0,7.5-2.7,13.3-8.2,17.4
			c-5.1,3.8-12.9,5.6-23.1,5.6c-9.8,0-17.1-2-21.9-5.9c-5-3.9-7.5-9.6-7.5-17.2V242.2z"/>
		<path id="XMLID_39_" class="st8" d="M448.3,110.6c1-17.4,16.6-22.6,31.7-22.6c13.4,0,29.6,3,29.6,19.2v35.1c0,6.2,0.7,12.3,2.3,15
			h-18.8c-0.7-2.1-1.2-4.3-1.3-6.5c-5.9,6.1-14.5,8.4-22.7,8.4c-12.8,0-23-6.4-23-20.2c0-15.3,11.5-18.9,23-20.5
			c11.4-1.7,21.9-1.3,21.9-8.9c0-8-5.5-9.1-12-9.1c-7,0-11.6,2.9-12.3,10.2H448.3z M491.2,124.3c-3.1,2.7-9.7,2.9-15.4,3.9
			c-5.7,1.2-11,3.1-11,9.9c0,6.9,5.3,8.6,11.4,8.6c14.5,0,15-11.5,15-15.5V124.3z"/>
	</g>
</g>
<g id="Black" class="st5">
	<g id="XMLID_75_" class="st6">
		<path id="XMLID_109_" d="M188.5,261.9c-10.6,28.3-37.9,48.5-69.9,48.5c-41.2,0-74.6-33.4-74.6-74.6c0-16.4,5.3-31.6,14.3-43.9
			c-9-12.3-14.3-27.5-14.3-43.9c0-32,20.2-59.3,48.6-69.9c10.6-28.3,37.9-48.5,69.9-48.5c41.2,0,74.6,33.4,74.6,74.6
			c0,16.4-5.3,31.6-14.3,43.9c9,12.3,14.3,27.5,14.3,43.9C237,224.1,216.8,251.3,188.5,261.9z M179,246.6
			c23.4-7.1,40.5-28.9,40.5-54.6c0-18.9-7.8-30.5-19.8-43.9c12-13.4,19.8-24.9,19.8-43.9c0-31.5-25.6-57-57-57
			c-28.9,0-48.1,18.9-56,45c-26,7.9-45,27.1-45,55.9c0,18.9,7.8,30.5,19.8,43.9c-12,13.4-19.8,24.9-19.8,43.9c0,31.5,25.5,57,57,57
			c28.9,0,48.1-18.9,56-44.9L179,246.6z"/>
		<path id="XMLID_108_" class="st10" d="M74.7,235.9c0-24.2,19.6-43.9,43.9-43.9c0,24.2,19.6,43.9,43.9,43.9
			c0,24.2-19.7,43.9-43.9,43.9C94.3,279.7,74.7,260.1,74.7,235.9z"/>
		<path id="XMLID_107_" class="st10" d="M74.7,148.2c0-24.2,19.6-43.9,43.9-43.9c0,24.2,19.6,43.9,43.9,43.9
			c-24.2,0-43.9,19.6-43.9,43.9C94.3,192,74.7,172.4,74.7,148.2z"/>
		<path id="XMLID_106_" class="st10" d="M162.4,148.2c24.2,0,43.9,19.6,43.9,43.9c0,24.2-19.6,43.9-43.9,43.9
			c0-24.2-19.6-43.9-43.9-43.9C142.8,192,162.4,172.4,162.4,148.2z"/>
		<path id="XMLID_105_" class="st10" d="M118.6,104.3c0-24.2,19.6-43.9,43.9-43.9c24.2,0,43.9,19.6,43.9,43.9
			c0,24.2-19.6,43.9-43.9,43.9C162.4,123.9,142.8,104.3,118.6,104.3z"/>
		<path id="XMLID_103_" d="M265.3,129.6h18c0.7,5.1,2.6,8.7,5.9,10.8c3.4,2.4,8.1,3.6,14.1,3.6c5.3,0,9.3-0.9,12.1-2.8
			c2.7-1.9,4.1-4.6,4.1-8.2c0-5.5-7.7-9.9-23.1-13.3l-0.5-0.3l-2-0.5c-8.7-1.9-14.5-3.9-17.4-5.9c-3.4-1.9-5.8-4.6-7.2-8.2
			c-1.7-3.1-2.6-7-2.6-11.8c0-8.4,2.9-15,8.7-19.8c5.8-4.6,14.3-6.9,25.4-6.9c10.4,0,18.5,2.4,24.1,7.2c5.8,5.3,8.9,12.2,9.2,20.8
			h-10.3c-3.9,0-6.7-1.8-8.5-5.4c-0.9-1.7-2.1-3.2-3.6-4.4c-3.1-2.2-7.3-3.3-12.6-3.3c-5.1,0-8.8,0.9-11,2.8
			c-2.6,1.9-3.8,4.5-3.8,7.9c0,4.6,5,8,14.9,10.3c2.9,0.9,5.1,1.4,6.4,1.5c3.1,1,5.8,1.8,8.1,2.4c2.3,0.6,4.1,1.1,5.5,1.4
			c2.4,1,4.8,2,7.2,3.1c3.4,2.1,6.1,4.7,8,8c1.9,3.6,2.8,7.5,2.8,11.8c0,9.2-3.1,16.4-9.2,21.5c-6.2,4.8-14.9,7.2-26.1,7.2
			c-11.6,0-20.3-2.5-26.2-7.4C269.2,146.7,265.8,139.3,265.3,129.6z"/>
		<path id="XMLID_101_" d="M400.2,157h-17.7v-40v-3.6c0-4.1-1.3-7.1-3.7-9c-2.5-1.9-5.3-2.8-8.3-2.8c-3.1,0-5.8,0.9-8.2,2.8
			c-2.4,1.9-3.6,4.9-3.6,9V157h-17.9v-40c0-11.6,3-19.4,9.1-23.3c6.1-3.9,12.8-6.1,20.1-6.4c3.9,0,7.8,0.4,11.5,1.3
			c3.8,0.9,7.2,2.6,10.3,5.1c2.6-2.2,5.6-3.8,9.1-4.7c3.5-0.9,7.1-1.5,10.9-1.7c7.5,0,14.4,2,20.8,5.9c6.3,3.9,9.5,11.9,9.5,23.8v40
			h-9c-2.6,0-4.7-0.8-6.3-2.4c-1.6-1.6-2.4-3.7-2.4-6.3v-34.9c0-4.1-1.2-7.1-3.7-9c-2.5-1.9-5.3-2.8-8.3-2.8c-3.1,0-5.8,0.9-8.3,2.8
			c-2.5,1.9-3.7,4.9-3.7,9v3.6V157z"/>
		<path id="XMLID_99_" d="M514.9,157v-33.1c0-6.7,1-12.3,3-16.8c2-4.5,4.7-8.1,8.1-10.9c3.2-2.6,7.1-4.4,11.4-5.6
			c4.4-1.2,8.8-1.8,13.5-1.8c0.3,0,0.8,0,1.3,0c0.5,0,0.9,0,1.3,0V107h-5.9c-5,0-8.6,1.2-11,3.6c-2.4,2.4-3.6,6.2-3.6,11.3V157
			H514.9z"/>
		<path id="XMLID_97_" d="M585.4,157c-5.6,0.3-11.7,0.3-18.3-0.3c-6.6-0.5-9.9-4.7-9.9-12.5V68.8h9.2c2.2,0,4.2,0.9,5.9,2.6
			c1.7,1.7,2.6,3.8,2.6,6.1v11.5h10.5v3.6c0,2.6-0.9,4.6-2.6,6.3c-1.7,1.6-3.8,2.4-6.2,2.4h-1.8v37.9c0,2.9,1.7,4.4,5.1,4.4h5.4V157
			z"/>
		<path id="XMLID_95_" d="M267.4,265.2v-79c0-2.6,0.9-4.7,2.7-6.5c1.8-1.8,4-2.7,6.6-2.7h9v88.2H267.4z"/>
		<path id="XMLID_93_" d="M350.3,265.2h-9c-2.6,0-4.7-0.8-6.3-2.4c-1.6-1.6-2.4-3.7-2.4-6.3v-34.9c0-4.1-1.2-7.1-3.7-9
			c-2.5-1.9-5.3-2.8-8.4-2.8c-3.1,0-5.8,0.9-8.2,2.8c-2.4,1.9-3.6,4.9-3.6,9v43.6h-18v-40c0-11.6,3.1-19.4,9.1-23.3
			c6.1-3.9,12.8-6.1,20.2-6.4c7.5,0,14.5,2,20.8,5.9c6.3,3.9,9.5,11.9,9.5,23.8V265.2z"/>
		<path id="XMLID_91_" d="M354.3,242.6h17.5c0.2,3.4,1.5,6,3.9,7.7c2.6,1.7,6,2.6,10.3,2.6c3.1,0,5.7-0.6,8-1.8
			c2.1-1.2,3.1-2.8,3.1-4.9c0-3.1-3.6-5.4-10.8-6.9c-3.1-0.5-5.4-1-6.9-1.5c-9.1-2.2-15.2-4.9-18.3-7.9c-3.4-3.1-5.1-7.2-5.1-12.3
			c0-6.5,2.5-11.9,7.5-16.1c5.1-3.9,11.8-5.9,20.1-5.9c8.9,0,16,2,21.3,5.9c5,4.3,7.6,9.8,8,16.7h-11.1c-3.2,0-5.7-1.4-7.5-4.4
			c-0.7-0.7-1.4-1.4-2.1-2.1c-2-1.5-4.9-2.3-8.5-2.3c-3.4,0-6,0.5-7.7,1.5c-1.5,1-2.3,2.6-2.3,4.6c0,2.7,4.4,5,13.4,6.9
			c1,0.3,1.9,0.6,2.7,0.8c0.8,0.2,1.5,0.3,2.2,0.3c8.7,2.2,14.8,4.8,18.3,7.7c3.3,3.1,4.9,7.2,4.9,12.3c0,7.5-2.7,13.3-8.2,17.4
			c-5.1,3.8-12.9,5.6-23.1,5.6c-9.8,0-17.1-2-21.9-5.9c-5-3.9-7.5-9.7-7.5-17.2V242.6z"/>
		<path id="XMLID_88_" d="M418.2,177h9.3c2.4,0,4.4,0.9,6.2,2.6c1.7,1.7,2.6,3.8,2.6,6.2v5.4h-18V177z M418.2,197h9.3
			c2.4,0,4.4,0.9,6.2,2.6c1.7,1.7,2.6,3.8,2.6,6.2v59.5h-18V197z"/>
		<path id="XMLID_85_" d="M486.4,261.1v-4.3c-3.1,4.8-7.2,7.8-12.5,9c-5.2,1.2-10.4,0.8-15.5-1.3c-5.1-2.1-9.6-5.9-13.3-11.4
			c-3.7-5.5-5.5-12.8-5.5-21.9c0-10.6,2.4-19.2,7.3-25.8c4.9-6.6,12.7-9.9,23.5-9.9c8.2,0,15.9,2.2,22.9,6.7
			c7,4.5,10.5,12.7,10.5,24.6v36.1c0,12-3.5,20.1-10.5,24.5c-7,4.4-14.7,6.5-22.9,6.5c-15.8,0-25.5-7.3-29.3-22h18.8
			c1.4,2.4,3.5,4.2,6.3,5.5c2.8,1.3,5.7,1.6,8.5,1c2.8-0.6,5.4-2.3,7.7-5C484.7,270.7,486,266.6,486.4,261.1z M457.1,231.6
			c0,11.8,3.4,18.3,10.3,19.6c6.9,1.3,11.9-0.3,15.2-4.7c1.6-1.9,2.7-4.8,3.3-8.9c0.7-4,0.7-8,0.1-11.9c-0.6-3.9-2-7.4-4.2-10.5
			c-2.2-3.1-5.5-4.6-9.8-4.6c-5.8,0-9.8,2.1-11.8,6.4C458.1,221.3,457.1,226.1,457.1,231.6z"/>
		<path id="XMLID_83_" d="M551,216.2c-2.6-3.6-6.1-5.4-10.5-5.4c-4.8,0-8.5,1.7-11.1,5.1c-2.6,3.4-3.9,8.1-3.9,14.1v35.1h-17.5V177
			h8.7c2.4,0,4.5,0.9,6.2,2.6c1.7,1.7,2.6,3.8,2.6,6.2V206c3.1-5.1,7.5-8.4,13.1-9.7c5.7-1.4,11.1-1,16.2,1
			c4.8,2.1,8.8,5.3,12.1,9.7c3.2,4.4,4.9,10.6,4.9,18.5v39.7h-17.2v-35.4c0-2.6-0.2-4.9-0.6-7C553.5,220.6,552.5,218.4,551,216.2z"
			/>
		<path id="XMLID_81_" d="M604.3,265.2c-5.6,0.4-11.8,0.3-18.4-0.3c-6.6-0.5-9.9-4.7-9.9-12.6V177h9.3c2.2,0,4.2,0.9,5.9,2.6
			c1.7,1.7,2.6,3.8,2.6,6.2v11.5h10.5v3.6c0,2.6-0.9,4.7-2.6,6.3c-1.7,1.6-3.8,2.4-6.2,2.4h-1.8v38c0,2.9,1.7,4.4,5.1,4.4h5.4V265.2
			z"/>
		<path id="XMLID_79_" d="M605.4,242.2h17.5c0.2,3.4,1.5,6,3.9,7.7c2.6,1.7,6,2.6,10.3,2.6c3.1,0,5.7-0.6,8-1.8
			c2.1-1.2,3.1-2.8,3.1-4.9c0-3.1-3.6-5.4-10.8-6.9c-3.1-0.5-5.4-1-6.9-1.5c-9.1-2.2-15.2-4.9-18.2-8c-3.4-3.1-5.2-7.2-5.2-12.3
			c0-6.5,2.5-11.9,7.5-16.2c5.1-3.9,11.8-5.9,20.1-5.9c8.9,0,16,2,21.3,5.9c5,4.3,7.6,9.9,8,16.7h-11.1c-3.3,0-5.7-1.5-7.5-4.4
			c-0.7-0.7-1.4-1.4-2.1-2c-2.1-1.5-4.9-2.3-8.5-2.3c-3.5,0-6,0.5-7.7,1.5c-1.5,1-2.3,2.6-2.3,4.6c0,2.7,4.5,5,13.4,6.9
			c1,0.4,1.9,0.6,2.7,0.8c0.8,0.2,1.5,0.3,2.2,0.3c8.8,2.2,14.8,4.8,18.3,7.7c3.2,3.1,4.9,7.2,4.9,12.3c0,7.5-2.7,13.3-8.2,17.4
			c-5.1,3.8-12.9,5.6-23.1,5.6c-9.8,0-17.1-2-21.9-5.9c-5-3.9-7.5-9.6-7.5-17.2V242.2z"/>
		<path id="XMLID_76_" d="M448.3,110.6c1-17.4,16.6-22.6,31.7-22.6c13.4,0,29.6,3,29.6,19.2v35.1c0,6.2,0.7,12.3,2.3,15h-18.8
			c-0.7-2.1-1.2-4.3-1.3-6.5c-5.9,6.1-14.5,8.4-22.7,8.4c-12.8,0-23-6.4-23-20.2c0-15.3,11.5-18.9,23-20.5
			c11.4-1.7,21.9-1.3,21.9-8.9c0-8-5.5-9.1-12-9.1c-7,0-11.6,2.9-12.3,10.2H448.3z M491.2,124.3c-3.1,2.7-9.7,2.9-15.4,3.9
			c-5.7,1.2-11,3.1-11,9.9c0,6.9,5.3,8.6,11.4,8.6c14.5,0,15-11.5,15-15.5V124.3z"/>
	</g>
</g>
</svg>
